<svg width="1146" height="351" viewBox="0 0 1146 351" fill="none" xmlns="http://www.w3.org/2000/svg">
<path fill-rule="evenodd" clip-rule="evenodd" d="M728.773 147.477L861.048 344.203H596.508L728.773 147.477Z" fill="#83B5D6"/>
<path fill-rule="evenodd" clip-rule="evenodd" d="M728.774 147.477L649.706 344.203H596.508L728.774 147.477Z" fill="#77A7C8"/>
<path fill-rule="evenodd" clip-rule="evenodd" d="M728.773 147.477L787.481 344.203H861.048L728.773 147.477Z" fill="#93C6E6"/>
<path fill-rule="evenodd" clip-rule="evenodd" d="M768.298 206.254L751.524 198.356L742.81 222.152L728.764 201.552L709.366 222.152L704.033 201.06L690.341 204.635L728.773 138.831L768.298 206.254Z" fill="#DBE3F1"/>
<path fill-rule="evenodd" clip-rule="evenodd" d="M847.655 40.9958L1009.87 344.203H847.655H685.428L847.655 40.9958Z" fill="#83B5D6"/>
<path fill-rule="evenodd" clip-rule="evenodd" d="M847.655 40.9958L775.657 344.203H685.428L847.655 40.9958Z" fill="#77A7C8"/>
<path fill-rule="evenodd" clip-rule="evenodd" d="M847.655 40.9958L919.644 344.203H1009.87L847.655 40.9958Z" fill="#93C6E6"/>
<path fill-rule="evenodd" clip-rule="evenodd" d="M882.911 106.892L867.95 98.0417L860.17 124.716L847.636 101.617L830.34 124.716L825.576 101.064L813.37 105.079L847.655 33.0059L882.911 106.892Z" fill="#DBE3F1"/>
<path fill-rule="evenodd" clip-rule="evenodd" d="M951.324 103.112L1080.31 344.203H822.327L951.324 103.112Z" fill="#83B5D6"/>
<path fill-rule="evenodd" clip-rule="evenodd" d="M951.324 103.112L894.082 344.203H822.327L951.324 103.112Z" fill="#77A7C8"/>
<path fill-rule="evenodd" clip-rule="evenodd" d="M951.324 103.112L1008.57 344.203H1080.31L951.324 103.112Z" fill="#93C6E6"/>
<path fill-rule="evenodd" clip-rule="evenodd" d="M986.58 169.008L971.618 160.158L963.848 186.832L951.305 163.733L934.008 186.832L929.245 163.18L917.038 167.195L951.324 96.7407L986.58 169.008Z" fill="#DBE3F1"/>
<path d="M1028.17 282.783H1034.7V315.367H1028.17V282.783Z" fill="#4C6788"/>
<path d="M1028.16 282.783H1031.43V315.367H1028.16V282.783Z" fill="#577498"/>
<path d="M956.46 293.979H962.988V326.563H956.46V293.979Z" fill="#4C6788"/>
<path d="M956.46 293.979H959.729V326.563H956.46V293.979Z" fill="#577498"/>
<path fill-rule="evenodd" clip-rule="evenodd" d="M979.958 298.209H959.729H939.499C937.8 298.209 936.763 295.382 937.622 293.549L956.955 252.165C957.683 250.608 958.459 248.733 959.738 248.733C961.018 248.733 961.793 250.618 962.521 252.165L981.854 293.549C982.694 295.382 981.658 298.209 979.958 298.209Z" fill="#4C6788"/>
<path fill-rule="evenodd" clip-rule="evenodd" d="M955.19 298.209H939.49C937.79 298.209 936.744 295.382 937.613 293.538L956.945 252.155C957.674 250.598 958.449 248.723 959.729 248.723L955.19 298.209Z" fill="#577498"/>
<path fill-rule="evenodd" clip-rule="evenodd" d="M976.325 272.058H959.719H943.123C941.732 272.058 940.872 269.743 941.582 268.227L957.45 234.27C958.048 232.999 958.683 231.453 959.729 231.453C960.775 231.453 961.419 232.999 962.017 234.27L977.875 268.227C978.576 269.743 977.726 272.058 976.325 272.058Z" fill="#4C6788"/>
<path fill-rule="evenodd" clip-rule="evenodd" d="M956.012 272.058H943.123C941.722 272.058 940.872 269.743 941.582 268.227L957.441 234.27C958.039 232.999 958.674 231.453 959.72 231.453L956.012 272.058Z" fill="#577498"/>
<path fill-rule="evenodd" clip-rule="evenodd" d="M973.803 247.268H959.719H945.635C944.449 247.268 943.73 245.302 944.328 244.021L957.786 215.217C958.29 214.141 958.832 212.83 959.719 212.83C960.606 212.83 961.148 214.141 961.653 215.217L975.111 244.021C975.718 245.302 974.989 247.268 973.803 247.268Z" fill="#4C6788"/>
<path fill-rule="evenodd" clip-rule="evenodd" d="M956.572 247.268H945.645C944.459 247.268 943.739 245.302 944.337 244.021L957.795 215.217C958.3 214.141 958.841 212.83 959.729 212.83L956.572 247.268Z" fill="#577498"/>
<path fill-rule="evenodd" clip-rule="evenodd" d="M971.562 226.7H959.72H947.877C946.878 226.7 946.271 225.05 946.775 223.965L958.085 199.749C958.506 198.837 958.963 197.741 959.71 197.741C960.458 197.741 960.915 198.837 961.336 199.749L972.646 223.965C973.169 225.05 972.562 226.7 971.562 226.7Z" fill="#4C6788"/>
<path fill-rule="evenodd" clip-rule="evenodd" d="M957.077 226.7H947.886C946.887 226.7 946.28 225.05 946.784 223.965L958.095 199.749C958.515 198.837 958.972 197.741 959.72 197.741L957.077 226.7Z" fill="#577498"/>
<path fill-rule="evenodd" clip-rule="evenodd" d="M967.023 226.7H956.31V228.881H968.06L967.023 226.7Z" fill="#577498"/>
<path fill-rule="evenodd" clip-rule="evenodd" d="M968.079 247.269H957.357V249.45H969.115L968.079 247.269Z" fill="#577498"/>
<path fill-rule="evenodd" clip-rule="evenodd" d="M971.804 272.058H956.002V274.24H972.841L971.804 272.058Z" fill="#577498"/>
<path d="M911.874 297.656H918.402V330.241H911.874V297.656Z" fill="#4C6788"/>
<path d="M911.873 297.656H915.142V330.241H911.873V297.656Z" fill="#577498"/>
<path fill-rule="evenodd" clip-rule="evenodd" d="M935.372 301.887H915.142H894.913C893.213 301.887 892.167 299.06 893.036 297.226L912.368 255.842C913.097 254.296 913.872 252.411 915.152 252.411C916.431 252.411 917.206 254.296 917.935 255.842L937.267 297.226C938.108 299.06 937.071 301.887 935.372 301.887Z" fill="#4C6788"/>
<path fill-rule="evenodd" clip-rule="evenodd" d="M910.612 301.887H894.913C893.213 301.887 892.167 299.06 893.026 297.226L912.359 255.842C913.087 254.296 913.863 252.411 915.142 252.411L910.612 301.887Z" fill="#577498"/>
<path fill-rule="evenodd" clip-rule="evenodd" d="M931.738 275.735H915.133H898.536C897.135 275.735 896.286 273.42 896.995 271.904L912.854 237.937C913.451 236.667 914.087 235.12 915.133 235.12C916.179 235.12 916.823 236.667 917.411 237.937L933.279 271.904C933.989 273.42 933.139 275.735 931.738 275.735Z" fill="#4C6788"/>
<path fill-rule="evenodd" clip-rule="evenodd" d="M911.425 275.735H898.546C897.145 275.735 896.295 273.42 897.005 271.904L912.863 237.947C913.461 236.677 914.096 235.13 915.142 235.13L911.425 275.735Z" fill="#577498"/>
<path fill-rule="evenodd" clip-rule="evenodd" d="M929.217 250.946H915.133H901.049C899.863 250.946 899.144 248.979 899.742 247.699L913.2 218.894C913.704 217.819 914.246 216.507 915.133 216.507C916.021 216.507 916.562 217.819 917.067 218.894L930.525 247.699C931.132 248.979 930.403 250.946 929.217 250.946Z" fill="#4C6788"/>
<path fill-rule="evenodd" clip-rule="evenodd" d="M911.985 250.946H901.058C899.872 250.946 899.153 248.979 899.751 247.699L913.209 218.894C913.713 217.819 914.255 216.507 915.142 216.507L911.985 250.946Z" fill="#577498"/>
<path fill-rule="evenodd" clip-rule="evenodd" d="M926.976 230.377H915.133H903.291C902.292 230.377 901.684 228.728 902.189 227.642L913.499 203.427C913.919 202.515 914.377 201.419 915.124 201.419C915.871 201.419 916.329 202.525 916.749 203.427L928.059 227.642C928.582 228.728 927.975 230.377 926.976 230.377Z" fill="#4C6788"/>
<path fill-rule="evenodd" clip-rule="evenodd" d="M912.49 230.377H903.3C902.301 230.377 901.694 228.728 902.198 227.642L913.508 203.427C913.928 202.515 914.386 201.419 915.133 201.419L912.49 230.377Z" fill="#577498"/>
<path fill-rule="evenodd" clip-rule="evenodd" d="M922.436 230.377H911.724V232.569H923.473L922.436 230.377Z" fill="#577498"/>
<path fill-rule="evenodd" clip-rule="evenodd" d="M923.492 250.946H912.78V253.138H924.529L923.492 250.946Z" fill="#577498"/>
<path fill-rule="evenodd" clip-rule="evenodd" d="M927.218 275.735H911.425V277.927H928.255L927.218 275.735Z" fill="#577498"/>
<path d="M830.592 277.835H837.121V310.42H830.592V277.835Z" fill="#4C6788"/>
<path d="M830.583 277.835H833.852V310.42H830.583V277.835Z" fill="#577498"/>
<path fill-rule="evenodd" clip-rule="evenodd" d="M854.09 282.055H833.861H813.632C811.932 282.055 810.886 279.228 811.745 277.395L831.078 236.011C831.806 234.454 832.582 232.579 833.861 232.579C835.141 232.579 835.916 234.464 836.644 236.011L855.977 277.395C856.827 279.238 855.79 282.055 854.09 282.055Z" fill="#4C6788"/>
<path fill-rule="evenodd" clip-rule="evenodd" d="M829.322 282.055H813.622C811.922 282.055 810.876 279.228 811.745 277.384L831.078 236.001C831.806 234.444 832.581 232.569 833.861 232.569L829.322 282.055Z" fill="#577498"/>
<path fill-rule="evenodd" clip-rule="evenodd" d="M850.457 255.914H833.851H817.255C815.864 255.914 815.004 253.599 815.714 252.083L831.573 218.126C832.17 216.856 832.805 215.309 833.851 215.309C834.898 215.309 835.542 216.856 836.14 218.126L852.007 252.083C852.708 253.589 851.849 255.914 850.457 255.914Z" fill="#4C6788"/>
<path fill-rule="evenodd" clip-rule="evenodd" d="M830.134 255.914H817.246C815.854 255.914 814.995 253.599 815.705 252.083L831.563 218.126C832.161 216.856 832.796 215.309 833.842 215.309L830.134 255.914Z" fill="#577498"/>
<path fill-rule="evenodd" clip-rule="evenodd" d="M847.935 231.125H833.851H819.768C818.581 231.125 817.862 229.158 818.46 227.878L831.918 199.073C832.423 197.987 832.964 196.686 833.851 196.686C834.739 196.686 835.28 197.997 835.785 199.073L849.243 227.878C849.841 229.158 849.122 231.125 847.935 231.125Z" fill="#4C6788"/>
<path fill-rule="evenodd" clip-rule="evenodd" d="M830.704 231.125H819.777C818.591 231.125 817.872 229.158 818.469 227.878L831.928 199.073C832.432 197.987 832.974 196.686 833.861 196.686L830.704 231.125Z" fill="#577498"/>
<path fill-rule="evenodd" clip-rule="evenodd" d="M845.694 210.556H833.852H822.009C821.01 210.556 820.403 208.907 820.907 207.831L832.217 183.616C832.637 182.704 833.095 181.608 833.842 181.608C834.589 181.608 835.047 182.714 835.467 183.616L846.777 207.831C847.3 208.896 846.693 210.556 845.694 210.556Z" fill="#4C6788"/>
<path fill-rule="evenodd" clip-rule="evenodd" d="M831.209 210.556H822.019C821.02 210.556 820.412 208.907 820.917 207.831L832.227 183.616C832.647 182.704 833.105 181.608 833.852 181.608L831.209 210.556Z" fill="#577498"/>
<path fill-rule="evenodd" clip-rule="evenodd" d="M841.155 210.556H830.442V212.738H842.191L841.155 210.556Z" fill="#577498"/>
<path fill-rule="evenodd" clip-rule="evenodd" d="M842.21 231.125H831.489V233.307H843.247L842.21 231.125Z" fill="#577498"/>
<path fill-rule="evenodd" clip-rule="evenodd" d="M845.937 255.914H830.135V258.096H846.974L845.937 255.914Z" fill="#577498"/>
<path d="M798.876 295.229H805.404V327.813H798.876V295.229Z" fill="#4C6788"/>
<path d="M798.866 295.229H802.135V327.813H798.866V295.229Z" fill="#577498"/>
<path fill-rule="evenodd" clip-rule="evenodd" d="M822.365 299.459H802.136H781.906C780.206 299.459 779.16 296.632 780.02 294.798L799.352 253.415C800.081 251.868 800.856 249.983 802.136 249.983C803.415 249.983 804.19 251.868 804.919 253.415L824.251 294.798C825.111 296.632 824.065 299.459 822.365 299.459Z" fill="#4C6788"/>
<path fill-rule="evenodd" clip-rule="evenodd" d="M797.606 299.459H781.906C780.206 299.459 779.17 296.632 780.029 294.798L799.362 253.415C800.09 251.868 800.865 249.983 802.145 249.983L797.606 299.459Z" fill="#577498"/>
<path fill-rule="evenodd" clip-rule="evenodd" d="M818.732 273.308H802.126H785.53C784.129 273.308 783.279 270.993 783.989 269.476L799.847 235.519C800.445 234.249 801.08 232.702 802.126 232.702C803.172 232.702 803.817 234.249 804.414 235.519L820.273 269.476C820.983 270.993 820.133 273.308 818.732 273.308Z" fill="#4C6788"/>
<path fill-rule="evenodd" clip-rule="evenodd" d="M798.418 273.308H785.539C784.138 273.308 783.288 270.993 783.998 269.476L799.856 235.519C800.454 234.249 801.089 232.702 802.135 232.702L798.418 273.308Z" fill="#577498"/>
<path fill-rule="evenodd" clip-rule="evenodd" d="M816.219 248.518H802.135H788.051C786.865 248.518 786.146 246.552 786.744 245.271L800.202 216.466C800.706 215.391 801.248 214.08 802.135 214.08C803.022 214.08 803.564 215.391 804.068 216.466L817.527 245.271C818.124 246.552 817.396 248.518 816.219 248.518Z" fill="#4C6788"/>
<path fill-rule="evenodd" clip-rule="evenodd" d="M798.979 248.518H788.051C786.865 248.518 786.146 246.552 786.744 245.271L800.202 216.466C800.706 215.391 801.248 214.08 802.135 214.08L798.979 248.518Z" fill="#577498"/>
<path fill-rule="evenodd" clip-rule="evenodd" d="M813.968 227.949H802.126H790.283C789.284 227.949 788.677 226.3 789.181 225.214L800.492 200.999C800.921 200.087 801.369 198.991 802.117 198.991C802.864 198.991 803.321 200.097 803.742 200.999L815.052 225.214C815.575 226.3 814.968 227.949 813.968 227.949Z" fill="#4C6788"/>
<path fill-rule="evenodd" clip-rule="evenodd" d="M799.483 227.949H790.293C789.294 227.949 788.687 226.3 789.191 225.214L800.501 200.999C800.922 200.087 801.379 198.991 802.126 198.991L799.483 227.949Z" fill="#577498"/>
<path fill-rule="evenodd" clip-rule="evenodd" d="M809.439 227.949H798.717V230.142H810.466L809.439 227.949Z" fill="#577498"/>
<path fill-rule="evenodd" clip-rule="evenodd" d="M810.485 248.518H799.772V250.7H811.521L810.485 248.518Z" fill="#577498"/>
<path fill-rule="evenodd" clip-rule="evenodd" d="M814.212 273.308H798.418V275.489H815.248L814.212 273.308Z" fill="#577498"/>
<path d="M767.047 311.618H773.575V344.203H767.047V311.618Z" fill="#4C6788"/>
<path d="M767.037 311.618H770.306V344.203H767.037V311.618Z" fill="#577498"/>
<path fill-rule="evenodd" clip-rule="evenodd" d="M790.535 315.849H770.306H750.077C748.377 315.849 747.331 313.021 748.19 311.188L767.523 269.804C768.251 268.247 769.027 266.373 770.306 266.373C771.586 266.373 772.361 268.257 773.089 269.804L792.422 311.188C793.281 313.021 792.245 315.849 790.535 315.849Z" fill="#4C6788"/>
<path fill-rule="evenodd" clip-rule="evenodd" d="M765.776 315.849H750.077C748.377 315.849 747.34 313.021 748.19 311.188L767.523 269.804C768.251 268.247 769.027 266.373 770.306 266.373L765.776 315.849Z" fill="#577498"/>
<path d="M765.776 315.849H750.077C748.377 315.849 747.34 313.021 748.19 311.188L767.523 269.804C768.251 268.247 769.027 266.373 770.306 266.373L765.776 315.849Z" stroke="#4C6788" stroke-width="0.216" stroke-miterlimit="22.926"/>
<path fill-rule="evenodd" clip-rule="evenodd" d="M786.911 289.697H770.315H753.709C752.318 289.697 751.458 287.382 752.168 285.866L768.027 251.909C768.624 250.639 769.26 249.092 770.315 249.092C771.37 249.092 772.005 250.639 772.603 251.909L788.462 285.866C789.153 287.382 788.303 289.697 786.911 289.697Z" fill="#4C6788"/>
<path fill-rule="evenodd" clip-rule="evenodd" d="M766.588 289.697H753.7C752.308 289.697 751.449 287.382 752.159 285.866L768.017 251.909C768.615 250.639 769.25 249.092 770.296 249.092L766.588 289.697Z" fill="#577498"/>
<path fill-rule="evenodd" clip-rule="evenodd" d="M784.391 264.908H770.307H756.223C755.037 264.908 754.317 262.941 754.915 261.661L768.373 232.856C768.878 231.78 769.419 230.469 770.307 230.469C771.194 230.469 771.736 231.78 772.24 232.856L785.698 261.661C786.296 262.941 785.577 264.908 784.391 264.908Z" fill="#4C6788"/>
<path fill-rule="evenodd" clip-rule="evenodd" d="M767.158 264.908H756.231C755.045 264.908 754.326 262.941 754.924 261.661L768.382 232.856C768.886 231.78 769.428 230.469 770.315 230.469L767.158 264.908Z" fill="#577498"/>
<path fill-rule="evenodd" clip-rule="evenodd" d="M782.148 244.339H770.306H758.463C757.464 244.339 756.857 242.69 757.361 241.614L768.671 217.399C769.101 216.487 769.549 215.391 770.296 215.391C771.043 215.391 771.501 216.497 771.921 217.399L783.231 241.614C783.745 242.69 783.138 244.339 782.148 244.339Z" fill="#4C6788"/>
<path fill-rule="evenodd" clip-rule="evenodd" d="M767.653 244.339H758.463C757.464 244.339 756.857 242.69 757.361 241.614L768.671 217.399C769.091 216.487 769.549 215.391 770.296 215.391L767.653 244.339Z" fill="#577498"/>
<path fill-rule="evenodd" clip-rule="evenodd" d="M777.61 244.339H766.888V246.531H778.647L777.61 244.339Z" fill="#577498"/>
<path fill-rule="evenodd" clip-rule="evenodd" d="M778.664 264.908H767.943V267.1H779.692L778.664 264.908Z" fill="#577498"/>
<path fill-rule="evenodd" clip-rule="evenodd" d="M782.382 289.697H766.589V291.889H783.419L782.382 289.697Z" fill="#577498"/>
<path d="M726.224 281.236H732.752V313.82H726.224V281.236Z" fill="#4C6788"/>
<path d="M726.224 281.236H729.493V313.82H726.224V281.236Z" fill="#577498"/>
<path fill-rule="evenodd" clip-rule="evenodd" d="M749.722 285.456H729.493H709.263C707.564 285.456 706.518 282.629 707.377 280.796L726.709 239.412C727.438 237.855 728.213 235.98 729.493 235.98C730.772 235.98 731.547 237.865 732.276 239.412L751.608 280.796C752.458 282.629 751.422 285.456 749.722 285.456Z" fill="#4C6788"/>
<path fill-rule="evenodd" clip-rule="evenodd" d="M724.963 285.456H709.264C707.564 285.456 706.518 282.629 707.377 280.796L726.71 239.412C727.438 237.855 728.213 235.98 729.493 235.98L724.963 285.456Z" fill="#577498"/>
<path fill-rule="evenodd" clip-rule="evenodd" d="M746.089 259.315H729.492H712.887C711.486 259.315 710.636 257 711.346 255.484L727.204 221.527C727.802 220.256 728.437 218.71 729.492 218.71C730.538 218.71 731.183 220.256 731.771 221.527L747.63 255.484C748.34 256.99 747.49 259.315 746.089 259.315Z" fill="#4C6788"/>
<path fill-rule="evenodd" clip-rule="evenodd" d="M725.776 259.315H712.887C711.486 259.315 710.636 257 711.346 255.484L727.205 221.527C727.802 220.256 728.437 218.71 729.493 218.71L725.776 259.315Z" fill="#577498"/>
<path fill-rule="evenodd" clip-rule="evenodd" d="M743.567 234.526H729.483H715.399C714.213 234.526 713.494 232.559 714.091 231.278L727.55 202.474C728.054 201.388 728.596 200.087 729.483 200.087C730.37 200.087 730.912 201.398 731.416 202.474L744.874 231.278C745.481 232.559 744.753 234.526 743.567 234.526Z" fill="#4C6788"/>
<path fill-rule="evenodd" clip-rule="evenodd" d="M726.336 234.526H715.409C714.223 234.526 713.504 232.559 714.101 231.278L727.56 202.474C728.064 201.388 728.606 200.087 729.493 200.087L726.336 234.526Z" fill="#577498"/>
<path fill-rule="evenodd" clip-rule="evenodd" d="M741.325 213.957H729.483H717.641C716.641 213.957 716.034 212.308 716.539 211.232L727.849 187.016C728.269 186.105 728.727 185.009 729.474 185.009C730.221 185.009 730.679 186.115 731.099 187.016L742.409 211.232C742.932 212.297 742.325 213.957 741.325 213.957Z" fill="#4C6788"/>
<path fill-rule="evenodd" clip-rule="evenodd" d="M726.84 213.957H717.65C716.651 213.957 716.044 212.308 716.548 211.232L727.858 187.016C728.279 186.105 728.736 185.009 729.483 185.009L726.84 213.957Z" fill="#577498"/>
<path fill-rule="evenodd" clip-rule="evenodd" d="M736.786 213.957H726.074V216.139H737.823L736.786 213.957Z" fill="#577498"/>
<path fill-rule="evenodd" clip-rule="evenodd" d="M737.842 234.526H727.13V236.707H738.879L737.842 234.526Z" fill="#577498"/>
<path fill-rule="evenodd" clip-rule="evenodd" d="M741.569 259.315H725.776V261.497H742.606L741.569 259.315Z" fill="#577498"/>
<path d="M660.866 300.76H667.394V333.345H660.866V300.76Z" fill="#4C6788"/>
<path d="M660.856 300.76H664.125V333.345H660.856V300.76Z" fill="#577498"/>
<path fill-rule="evenodd" clip-rule="evenodd" d="M684.364 304.99H664.134H643.905C642.205 304.99 641.159 302.163 642.018 300.319L661.351 258.936C662.08 257.379 662.855 255.504 664.134 255.504C665.414 255.504 666.189 257.389 666.917 258.936L686.25 300.319C687.1 302.163 686.063 304.99 684.364 304.99Z" fill="#4C6788"/>
<path fill-rule="evenodd" clip-rule="evenodd" d="M659.595 304.99H643.896C642.196 304.99 641.15 302.163 642.009 300.319L661.342 258.936C662.07 257.379 662.846 255.504 664.125 255.504L659.595 304.99Z" fill="#577498"/>
<path fill-rule="evenodd" clip-rule="evenodd" d="M680.731 278.839H664.125H647.519C646.118 278.839 645.268 276.524 645.978 275.008L661.846 241.051C662.444 239.78 663.079 238.234 664.125 238.234C665.171 238.234 665.815 239.78 666.404 241.051L682.262 275.008C682.981 276.524 682.131 278.839 680.731 278.839Z" fill="#4C6788"/>
<path fill-rule="evenodd" clip-rule="evenodd" d="M660.417 278.839H647.529C646.128 278.839 645.278 276.524 645.988 275.008L661.846 241.051C662.444 239.78 663.079 238.234 664.125 238.234L660.417 278.839Z" fill="#577498"/>
<path fill-rule="evenodd" clip-rule="evenodd" d="M678.209 254.05H664.125H650.041C648.855 254.05 648.136 252.083 648.733 250.802L662.191 221.998C662.696 220.912 663.238 219.611 664.125 219.611C665.012 219.611 665.554 220.922 666.058 221.998L679.516 250.802C680.123 252.083 679.395 254.05 678.209 254.05Z" fill="#4C6788"/>
<path fill-rule="evenodd" clip-rule="evenodd" d="M660.978 254.05H650.051C648.864 254.05 648.145 252.083 648.743 250.802L662.201 221.998C662.706 220.912 663.247 219.611 664.135 219.611L660.978 254.05Z" fill="#577498"/>
<path fill-rule="evenodd" clip-rule="evenodd" d="M675.968 233.481H664.125H652.283C651.283 233.481 650.676 231.832 651.181 230.746L662.5 206.53C662.92 205.618 663.378 204.522 664.125 204.522C664.872 204.522 665.33 205.618 665.75 206.53L677.061 230.746C677.574 231.832 676.967 233.481 675.968 233.481Z" fill="#4C6788"/>
<path fill-rule="evenodd" clip-rule="evenodd" d="M661.482 233.481H652.292C651.293 233.481 650.686 231.832 651.19 230.746L662.5 206.53C662.92 205.618 663.378 204.522 664.125 204.522L661.482 233.481Z" fill="#577498"/>
<path fill-rule="evenodd" clip-rule="evenodd" d="M671.429 233.481H660.716V235.673H672.466L671.429 233.481Z" fill="#577498"/>
<path fill-rule="evenodd" clip-rule="evenodd" d="M672.484 254.05H661.762V256.242H673.521L672.484 254.05Z" fill="#577498"/>
<path fill-rule="evenodd" clip-rule="evenodd" d="M676.21 278.839H660.417V281.031H677.247L676.21 278.839Z" fill="#577498"/>
<path fill-rule="evenodd" clip-rule="evenodd" d="M1010.03 315.828H989.801H969.572C967.872 315.828 966.835 313.001 967.695 311.157L987.027 269.773C987.756 268.216 988.531 266.342 989.81 266.342C991.09 266.342 991.865 268.227 992.594 269.773L1011.93 311.157C1012.78 313.001 1011.73 315.828 1010.03 315.828Z" fill="#4C6788"/>
<path fill-rule="evenodd" clip-rule="evenodd" d="M1006.4 289.677H989.801H973.195C971.804 289.677 970.945 287.361 971.654 285.845L987.522 251.888C988.12 250.618 988.755 249.071 989.81 249.071C990.856 249.071 991.501 250.618 992.089 251.888L1007.96 285.845C1008.65 287.361 1007.8 289.677 1006.4 289.677Z" fill="#4C6788"/>
<path fill-rule="evenodd" clip-rule="evenodd" d="M986.084 289.677H973.195C971.794 289.677 970.944 287.361 971.654 285.845L987.522 251.888C988.12 250.618 988.755 249.071 989.801 249.071L986.084 289.677Z" fill="#577498"/>
<path fill-rule="evenodd" clip-rule="evenodd" d="M1003.88 264.887H989.793H975.709C974.522 264.887 973.803 262.92 974.401 261.64L987.859 232.835C988.364 231.75 988.905 230.449 989.793 230.449C990.68 230.449 991.221 231.76 991.726 232.835L1005.18 261.64C1005.79 262.92 1005.06 264.887 1003.88 264.887Z" fill="#4C6788"/>
<path fill-rule="evenodd" clip-rule="evenodd" d="M986.644 264.887H975.717C974.531 264.887 973.812 262.92 974.409 261.64L987.868 232.835C988.372 231.76 988.914 230.449 989.801 230.449L986.644 264.887Z" fill="#577498"/>
<path fill-rule="evenodd" clip-rule="evenodd" d="M1001.63 244.317H989.792H977.949C976.95 244.317 976.343 242.668 976.847 241.593L988.157 217.377C988.577 216.465 989.035 215.369 989.782 215.369C990.529 215.369 990.987 216.476 991.407 217.377L1002.72 241.593C1003.24 242.668 1002.63 244.317 1001.63 244.317Z" fill="#4C6788"/>
<path fill-rule="evenodd" clip-rule="evenodd" d="M987.149 244.318H977.959C976.959 244.318 976.352 242.669 976.857 241.583L988.167 217.368C988.587 216.456 989.045 215.36 989.792 215.36L987.149 244.318Z" fill="#577498"/>
<path fill-rule="evenodd" clip-rule="evenodd" d="M997.105 244.318H986.383V246.51H998.132L997.105 244.318Z" fill="#577498"/>
<path fill-rule="evenodd" clip-rule="evenodd" d="M998.151 264.887H987.439V267.079H999.188L998.151 264.887Z" fill="#577498"/>
<path fill-rule="evenodd" clip-rule="evenodd" d="M1001.88 289.676H986.085V291.869H1002.91L1001.88 289.676Z" fill="#577498"/>
<path d="M867.361 290.332H875.981V333.345H867.361V290.332Z" fill="#4C6788"/>
<path fill-rule="evenodd" clip-rule="evenodd" d="M898.378 295.905H871.667H844.956C842.705 295.905 841.332 292.176 842.471 289.748L867.996 235.11C868.949 233.061 869.986 230.582 871.667 230.582C873.357 230.582 874.384 233.061 875.337 235.11L900.862 289.748C901.992 292.176 900.619 295.905 898.378 295.905Z" fill="#4C6788"/>
<path fill-rule="evenodd" clip-rule="evenodd" d="M865.689 295.915H844.965C842.714 295.915 841.341 292.186 842.481 289.759L868.006 235.12C868.958 233.071 869.995 230.592 871.676 230.592L865.689 295.915Z" fill="#577498"/>
<path fill-rule="evenodd" clip-rule="evenodd" d="M893.587 261.394H871.667H849.747C847.898 261.394 846.777 258.332 847.711 256.344L868.65 211.509C869.435 209.829 870.275 207.79 871.667 207.79C873.049 207.79 873.899 209.829 874.683 211.509L895.623 256.344C896.556 258.332 895.426 261.394 893.587 261.394Z" fill="#4C6788"/>
<path fill-rule="evenodd" clip-rule="evenodd" d="M866.764 261.394H849.756C847.916 261.394 846.786 258.332 847.72 256.344L868.659 211.509C869.444 209.829 870.294 207.79 871.676 207.79L866.764 261.394Z" fill="#577498"/>
<path fill-rule="evenodd" clip-rule="evenodd" d="M890.252 228.666H871.667H853.081C851.512 228.666 850.559 226.075 851.353 224.374L869.117 186.351C869.78 184.927 870.499 183.196 871.676 183.196C872.853 183.196 873.563 184.927 874.235 186.351L891.999 224.374C892.774 226.075 891.821 228.666 890.252 228.666Z" fill="#4C6788"/>
<path fill-rule="evenodd" clip-rule="evenodd" d="M867.501 228.666H853.072C851.503 228.666 850.55 226.075 851.344 224.374L869.108 186.351C869.771 184.927 870.49 183.196 871.667 183.196L867.501 228.666Z" fill="#577498"/>
<path fill-rule="evenodd" clip-rule="evenodd" d="M887.291 201.511H871.666H856.041C854.725 201.511 853.921 199.329 854.585 197.905L869.518 165.935C870.079 164.737 870.676 163.282 871.666 163.282C872.656 163.282 873.254 164.737 873.814 165.935L888.748 197.905C889.411 199.329 888.608 201.511 887.291 201.511Z" fill="#4C6788"/>
<path fill-rule="evenodd" clip-rule="evenodd" d="M868.164 201.511H856.032C854.715 201.511 853.912 199.329 854.575 197.905L869.509 165.935C870.069 164.737 870.667 163.282 871.657 163.282L868.164 201.511Z" fill="#577498"/>
<path fill-rule="evenodd" clip-rule="evenodd" d="M881.305 201.511H867.156V204.4H882.669L881.305 201.511Z" fill="#577498"/>
<path fill-rule="evenodd" clip-rule="evenodd" d="M882.697 228.666H868.547V231.555H884.06L882.697 228.666Z" fill="#577498"/>
<path fill-rule="evenodd" clip-rule="evenodd" d="M887.609 261.394H866.763V264.273H888.982L887.609 261.394Z" fill="#577498"/>
<path fill-rule="evenodd" clip-rule="evenodd" d="M867.996 306.087C867.062 306.087 866.296 305.247 866.296 304.222C866.296 303.198 867.062 302.358 867.996 302.358C868.93 302.358 869.696 303.198 869.696 304.222C869.696 305.247 868.939 306.087 867.996 306.087Z" fill="#77A7C8"/>
<path fill-rule="evenodd" clip-rule="evenodd" d="M1051.66 287.003H1031.43H1011.2C1009.5 287.003 1008.46 284.176 1009.32 282.342L1028.65 240.959C1029.38 239.412 1030.16 237.527 1031.44 237.527C1032.72 237.527 1033.49 239.412 1034.22 240.959L1053.55 282.342C1054.4 284.176 1053.36 287.003 1051.66 287.003Z" fill="#4C6788"/>
<path fill-rule="evenodd" clip-rule="evenodd" d="M1026.9 287.003H1011.2C1009.5 287.003 1008.45 284.176 1009.32 282.342L1028.65 240.959C1029.38 239.412 1030.16 237.527 1031.44 237.527L1026.9 287.003Z" fill="#577498"/>
<path fill-rule="evenodd" clip-rule="evenodd" d="M1048.02 260.862H1031.43H1014.82C1013.43 260.862 1012.57 258.547 1013.28 257.031L1029.15 223.063C1029.75 221.793 1030.38 220.246 1031.43 220.246C1032.47 220.246 1033.12 221.793 1033.71 223.063L1049.57 257.031C1050.27 258.536 1049.42 260.862 1048.02 260.862Z" fill="#4C6788"/>
<path fill-rule="evenodd" clip-rule="evenodd" d="M1027.71 260.862H1014.82C1013.42 260.862 1012.57 258.547 1013.28 257.031L1029.14 223.063C1029.74 221.793 1030.37 220.246 1031.42 220.246L1027.71 260.862Z" fill="#577498"/>
<path fill-rule="evenodd" clip-rule="evenodd" d="M1045.51 236.072H1031.43H1017.34C1016.16 236.072 1015.44 234.106 1016.04 232.825L1029.49 204.021C1030 202.945 1030.54 201.634 1031.43 201.634C1032.31 201.634 1032.86 202.945 1033.36 204.021L1046.82 232.815C1047.42 234.106 1046.7 236.072 1045.51 236.072Z" fill="#4C6788"/>
<path fill-rule="evenodd" clip-rule="evenodd" d="M1028.27 236.072H1017.34C1016.16 236.072 1015.44 234.106 1016.04 232.825L1029.49 204.021C1030 202.945 1030.54 201.634 1031.43 201.634L1028.27 236.072Z" fill="#577498"/>
<path fill-rule="evenodd" clip-rule="evenodd" d="M1043.27 215.504H1031.43H1019.58C1018.59 215.504 1017.98 213.854 1018.48 212.769L1029.79 188.553C1030.22 187.641 1030.67 186.545 1031.42 186.545C1032.17 186.545 1032.62 187.651 1033.04 188.553L1044.35 212.769C1044.87 213.844 1044.26 215.504 1043.27 215.504Z" fill="#4C6788"/>
<path fill-rule="evenodd" clip-rule="evenodd" d="M1028.78 215.504H1019.59C1018.59 215.504 1017.98 213.854 1018.48 212.769L1029.79 188.553C1030.21 187.641 1030.67 186.545 1031.42 186.545L1028.78 215.504Z" fill="#577498"/>
<path fill-rule="evenodd" clip-rule="evenodd" d="M1038.73 215.504H1028.01V217.685H1039.76L1038.73 215.504Z" fill="#577498"/>
<path fill-rule="evenodd" clip-rule="evenodd" d="M1039.79 236.072H1029.06V238.254H1040.81L1039.79 236.072Z" fill="#577498"/>
<path fill-rule="evenodd" clip-rule="evenodd" d="M1043.5 260.862H1027.71V263.044H1044.54L1043.5 260.862Z" fill="#577498"/>
<path d="M867.352 290.332H871.667V333.345H867.352V290.332Z" fill="#577498"/>
<path d="M986.533 311.598H993.061V344.182H986.533V311.598Z" fill="#4C6788"/>
<path d="M986.533 311.598H989.802V344.182H986.533V311.598Z" fill="#577498"/>
<path fill-rule="evenodd" clip-rule="evenodd" d="M985.273 315.828H969.573C967.873 315.828 966.827 313.001 967.686 311.157L987.019 269.773C987.748 268.216 988.523 266.342 989.802 266.342L985.273 315.828Z" fill="#577498"/>
<path fill-rule="evenodd" clip-rule="evenodd" d="M626.356 328.94C625.3 328.94 624.432 327.997 624.432 326.83C624.432 325.672 625.3 324.72 626.356 324.72C627.42 324.72 628.28 325.672 628.28 326.83C628.28 327.987 627.42 328.94 626.356 328.94Z" fill="#6D7BB1"/>
<path fill-rule="evenodd" clip-rule="evenodd" d="M679.872 306.906C678.807 306.906 677.948 305.953 677.948 304.796C677.948 303.638 678.816 302.686 679.872 302.686C680.927 302.686 681.796 303.638 681.796 304.796C681.796 305.953 680.936 306.906 679.872 306.906Z" fill="#77A7C8"/>
<path fill-rule="evenodd" clip-rule="evenodd" d="M720.349 329.985C719.284 329.985 718.425 329.032 718.425 327.874C718.425 326.717 719.284 325.764 720.349 325.764C721.413 325.764 722.273 326.717 722.273 327.874C722.273 329.032 721.404 329.985 720.349 329.985Z" fill="white"/>
<path fill-rule="evenodd" clip-rule="evenodd" d="M915.713 338.866C916.777 338.866 917.636 337.923 917.636 336.756C917.636 335.588 916.768 334.645 915.713 334.645C914.657 334.645 913.789 335.588 913.789 336.756C913.789 337.923 914.657 338.866 915.713 338.866Z" fill="#77A7C8"/>
<path fill-rule="evenodd" clip-rule="evenodd" d="M1005.4 331.962C1004.48 331.962 1003.75 331.142 1003.75 330.149C1003.75 329.145 1004.49 328.335 1005.4 328.335C1006.3 328.335 1007.05 329.155 1007.05 330.149C1007.06 331.152 1006.31 331.962 1005.4 331.962Z" fill="white"/>
<path fill-rule="evenodd" clip-rule="evenodd" d="M738.599 339.603C739.514 339.603 740.252 338.784 740.252 337.79C740.252 336.786 739.505 335.977 738.599 335.977C737.684 335.977 736.946 336.797 736.946 337.79C736.946 338.794 737.693 339.603 738.599 339.603Z" fill="#9DA1E6"/>
<path fill-rule="evenodd" clip-rule="evenodd" d="M879.895 312.929C878.961 312.929 878.195 312.089 878.195 311.065C878.195 310.041 878.961 309.201 879.895 309.201C880.829 309.201 881.595 310.041 881.595 311.065C881.604 312.089 880.838 312.929 879.895 312.929Z" fill="#FFFFFC"/>
<path fill-rule="evenodd" clip-rule="evenodd" d="M813.604 337.995C814.538 337.995 815.304 337.155 815.304 336.131C815.304 335.106 814.538 334.266 813.604 334.266C812.67 334.266 811.904 335.106 811.904 336.131C811.904 337.155 812.67 337.995 813.604 337.995Z" fill="#9DA1E6"/>
<path fill-rule="evenodd" clip-rule="evenodd" d="M901.805 320.591C900.871 320.591 900.105 319.751 900.105 318.727C900.105 317.703 900.871 316.863 901.805 316.863C902.739 316.863 903.505 317.703 903.505 318.727C903.505 319.751 902.748 320.591 901.805 320.591Z" fill="#9DA1E6"/>
<path fill-rule="evenodd" clip-rule="evenodd" d="M680.824 335.793C679.292 335.793 678.05 334.42 678.05 332.75C678.05 331.07 679.302 329.708 680.824 329.708C682.356 329.708 683.598 331.07 683.598 332.75C683.598 334.43 682.356 335.793 680.824 335.793Z" fill="#577498"/>
<path fill-rule="evenodd" clip-rule="evenodd" d="M628.046 173.157C625.87 173.157 624.114 175.093 624.114 177.469C624.114 177.807 624.152 178.125 624.217 178.443H681.534C681.534 175.912 679.666 173.864 677.359 173.864C676.406 173.864 675.528 174.212 674.828 174.806C674.081 172.317 671.933 170.514 669.411 170.514C668.309 170.514 667.272 170.862 666.394 171.467C664.76 165.905 660.006 161.889 654.393 161.889C649.2 161.889 644.745 165.331 642.812 170.248C641.318 168.568 639.235 167.533 636.928 167.533C633.407 167.533 630.409 169.961 629.232 173.362C628.85 173.229 628.457 173.157 628.046 173.157Z" fill="#DBE3F1"/>
<path fill-rule="evenodd" clip-rule="evenodd" d="M751.58 131.302C748.806 131.302 746.565 133.771 746.565 136.803C746.565 137.223 746.611 137.643 746.695 138.042H819.777C819.777 134.816 817.395 132.204 814.453 132.204C813.239 132.204 812.118 132.654 811.222 133.402C810.269 130.227 807.533 127.932 804.32 127.932C802.91 127.932 801.593 128.372 800.472 129.141C798.389 122.052 792.328 116.93 785.174 116.93C778.552 116.93 772.874 121.315 770.408 127.584C768.503 125.443 765.841 124.121 762.899 124.121C758.416 124.121 754.578 127.215 753.084 131.558C752.607 131.394 752.103 131.302 751.58 131.302Z" fill="#DBE3F1"/>
<path fill-rule="evenodd" clip-rule="evenodd" d="M924.5 65.8975C921.726 65.8975 919.485 68.3559 919.485 71.3983C919.485 71.8285 919.532 72.2382 918.476 70.2407H991.558C992.697 69.411 990.315 66.7989 987.374 66.7989C986.159 66.7989 985.039 67.2496 984.142 67.9974C983.189 64.8219 980.453 62.5274 977.24 62.5274C975.83 62.5274 974.513 62.9679 973.392 63.7361C971.31 56.6476 965.248 51.5259 958.094 51.5259C951.473 51.5259 945.794 55.9101 943.329 62.1791C941.423 60.0382 938.762 58.7168 935.82 58.7168C931.327 58.7168 927.498 61.8104 926.004 66.1536C925.518 65.9795 925.023 65.8975 924.5 65.8975Z" fill="#DBE3F1"/>
<path fill-rule="evenodd" clip-rule="evenodd" d="M1015.48 149.095C1013.31 149.095 1011.55 151.031 1011.55 153.408C1011.55 153.735 1011.59 154.063 1011.66 154.381H1068.97C1068.97 151.851 1067.1 149.802 1064.8 149.802C1063.84 149.802 1062.97 150.15 1062.26 150.744C1061.5 148.255 1059.36 146.452 1056.84 146.452C1055.73 146.452 1054.7 146.801 1053.82 147.405C1052.19 141.843 1047.44 137.827 1041.82 137.827C1036.63 137.827 1032.17 141.269 1030.24 146.176C1028.75 144.496 1026.66 143.461 1024.36 143.461C1020.84 143.461 1017.84 145.889 1016.66 149.29C1016.29 149.167 1015.9 149.095 1015.48 149.095Z" fill="#DBE3F1"/>
<path fill-rule="evenodd" clip-rule="evenodd" d="M711.176 237.814C712.399 237.814 713.389 236.728 713.389 235.386C713.389 234.044 712.399 232.958 711.176 232.958C709.953 232.958 708.962 234.044 708.962 235.386C708.962 236.728 709.953 237.814 711.176 237.814Z" fill="#C8E4F4"/>
<path fill-rule="evenodd" clip-rule="evenodd" d="M790.806 254.029C792.029 254.029 793.019 252.943 793.019 251.602C793.019 250.26 792.029 249.174 790.806 249.174C789.582 249.174 788.592 250.26 788.592 251.602C788.592 252.943 789.582 254.029 790.806 254.029Z" fill="#C8E4F4"/>
<path fill-rule="evenodd" clip-rule="evenodd" d="M1005.57 234.69C1006.43 234.69 1007.14 233.911 1007.14 232.958C1007.14 231.996 1006.43 231.227 1005.57 231.227C1004.7 231.227 1003.99 232.006 1003.99 232.958C1003.99 233.921 1004.7 234.69 1005.57 234.69Z" fill="#C8E4F4"/>
<path fill-rule="evenodd" clip-rule="evenodd" d="M630.167 174.396C631.045 174.396 631.745 173.618 631.745 172.665C631.745 171.713 631.035 170.934 630.167 170.934C629.298 170.934 628.588 171.713 628.588 172.665C628.588 173.618 629.289 174.396 630.167 174.396Z" fill="#C8E4F4"/>
<path fill-rule="evenodd" clip-rule="evenodd" d="M980.145 317.098C981.013 317.098 981.723 316.32 981.723 315.367C981.723 314.404 981.013 313.636 980.145 313.636C979.276 313.636 978.567 314.415 978.567 315.367C978.557 316.32 979.267 317.098 980.145 317.098Z" fill="#DBE3F1"/>
<path fill-rule="evenodd" clip-rule="evenodd" d="M897.957 169.551C898.835 169.551 899.535 168.773 899.535 167.82C899.535 166.868 898.825 166.089 897.957 166.089C897.088 166.089 896.378 166.868 896.378 167.82C896.378 168.783 897.079 169.551 897.957 169.551Z" fill="#C8E4F4"/>
<path fill-rule="evenodd" clip-rule="evenodd" d="M812.801 232.856C813.67 232.856 814.379 232.077 814.379 231.125C814.379 230.162 813.67 229.394 812.801 229.394C811.933 229.394 811.223 230.172 811.223 231.125C811.223 232.088 811.933 232.856 812.801 232.856Z" fill="#C8E4F4"/>
<path fill-rule="evenodd" clip-rule="evenodd" d="M859.348 231.586C860.217 231.586 860.926 230.807 860.926 229.855C860.926 228.892 860.217 228.123 859.348 228.123C858.479 228.123 857.77 228.902 857.77 229.855C857.77 230.817 858.479 231.586 859.348 231.586Z" fill="#C8E4F4"/>
<path d="M696.533 288.232H701.716V312.427H696.533V288.232Z" fill="#4C6788"/>
<path d="M696.542 288.232H699.129V312.427H696.542V288.232Z" fill="#577498"/>
<path fill-rule="evenodd" clip-rule="evenodd" d="M699.186 230.326C701.941 230.326 727.4 291.694 699.186 291.694C670.971 291.694 696.43 230.326 699.186 230.326Z" fill="#B5C7E5"/>
<path fill-rule="evenodd" clip-rule="evenodd" d="M699.185 230.326C701.782 230.326 724.589 284.944 703.463 291.121C685.055 285.354 697.093 237.722 699.185 230.326Z" fill="#DBE3F1"/>
<path d="M744.641 301.989H749.824V326.184H744.641V301.989Z" fill="#4C6788"/>
<path d="M744.65 301.989H747.237V326.184H744.65V301.989Z" fill="#577498"/>
<path fill-rule="evenodd" clip-rule="evenodd" d="M747.293 244.083C750.048 244.083 775.508 305.452 747.293 305.452C719.079 305.441 744.538 244.083 747.293 244.083Z" fill="#B5C7E5"/>
<path fill-rule="evenodd" clip-rule="evenodd" d="M747.293 244.083C749.889 244.083 772.696 298.701 751.57 304.878C733.172 299.101 745.21 251.468 747.293 244.083Z" fill="#DBE3F1"/>
<path fill-rule="evenodd" clip-rule="evenodd" d="M815.182 320.233C803.115 320.233 793.328 330.968 793.328 344.203H950.53C950.548 343.772 950.558 343.352 950.558 342.912C950.558 329.677 940.77 318.942 928.703 318.942C926.471 318.942 924.314 319.311 922.278 319.997C919.457 311.055 911.705 304.622 902.59 304.622C900.181 304.622 897.874 305.073 895.726 305.892C893.578 293.088 883.351 283.387 871.06 283.387C859.003 283.387 848.935 292.719 846.525 305.165C845.404 304.919 844.237 304.786 843.042 304.786C833.646 304.786 825.988 312.929 825.605 323.132C822.513 321.288 818.955 320.233 815.182 320.233Z" fill="#77A7C8"/>
<path fill-rule="evenodd" clip-rule="evenodd" d="M896.696 308.934C898.592 308.207 900.591 307.838 902.599 307.838C910.229 307.838 917.028 313.155 919.513 321.042L920.437 323.972L923.146 323.06C924.948 322.456 926.825 322.148 928.703 322.148C939.153 322.148 947.624 331.439 947.624 342.902C947.624 343.332 947.615 343.762 947.587 344.192H796.241C796.241 332.73 804.712 323.439 815.163 323.439C818.329 323.439 821.411 324.289 824.194 325.949L828.331 328.417L828.527 323.255C828.845 314.732 835.252 307.992 843.041 307.992C844.012 307.992 844.984 308.094 845.936 308.31L848.785 308.945L849.382 305.831C851.549 294.635 860.599 286.604 871.05 286.604C881.725 286.604 890.906 294.973 892.839 306.476L893.455 310.164L896.696 308.934Z" fill="#6898B9"/>
<path fill-rule="evenodd" clip-rule="evenodd" d="M820.281 344.203C820.281 332.167 808.738 318.369 799.706 318.369H763.862C754.802 318.369 753.252 303.546 741.372 303.546C730.8 304.233 724.104 281.656 709.861 281.656H681.618C670.187 281.656 666.853 300.453 657.242 303.208V344.203H820.281V344.203Z" fill="#77A7C8"/>
<path fill-rule="evenodd" clip-rule="evenodd" d="M801.023 344.203C801.023 334.287 793.626 326.174 784.585 326.174H748.741C739.681 326.174 738.131 310.727 726.251 310.727C715.679 311.29 708.982 292.709 694.74 292.709H666.506C654.178 292.709 651.264 310.727 639.73 310.727H630.325C612.973 310.727 598.609 325.529 597.236 344.203H801.023Z" fill="#6898B9"/>
<path fill-rule="evenodd" clip-rule="evenodd" d="M919.373 344.203C919.373 333.836 929.31 321.964 937.09 321.964H967.948C975.746 321.964 977.082 309.201 987.309 309.201C996.405 309.795 1002.18 290.353 1014.44 290.353H1038.75C1048.58 290.353 1051.46 306.537 1059.74 308.904V344.192H919.373V344.203Z" fill="#77A7C8"/>
<path fill-rule="evenodd" clip-rule="evenodd" d="M935.951 344.203C935.951 335.67 942.321 328.684 950.101 328.684H980.958C988.757 328.684 990.092 315.388 1000.32 315.388C1009.42 315.879 1015.19 299.879 1027.45 299.879H1051.75C1062.36 299.879 1064.87 315.388 1074.8 315.388H1082.89C1097.83 315.388 1110.19 328.131 1111.37 344.203H935.951Z" fill="#6898B9"/>
<path fill-rule="evenodd" clip-rule="evenodd" d="M1035.73 321.81C1022.63 321.81 1011.52 331.214 1007.72 344.203H1063.73C1059.94 331.214 1048.84 321.81 1035.73 321.81Z" fill="#577498"/>
<path fill-rule="evenodd" clip-rule="evenodd" d="M1016.82 344.203H1063.73C1060.38 332.75 1051.35 324.074 1040.28 322.189C1029.2 324.084 1020.17 332.75 1016.82 344.203Z" fill="#4C6788"/>
<path fill-rule="evenodd" clip-rule="evenodd" d="M706.601 328.417C702.744 328.417 699.157 329.729 696.206 331.962C693.432 324.73 686.913 319.649 679.311 319.649C674.23 319.649 669.635 321.913 666.32 325.57C663.975 317.436 657.046 311.536 648.855 311.536C642.868 311.536 637.545 314.691 634.201 319.567C630.839 314.978 625.684 312.038 619.903 312.038C611.964 312.038 605.212 317.57 602.662 325.314C601.793 325.17 600.906 325.099 600 325.099C590.184 325.099 582.18 333.56 581.704 344.192H634.556H724.505C722.693 335.178 715.371 328.417 706.601 328.417Z" fill="#4C6788"/>
<path fill-rule="evenodd" clip-rule="evenodd" d="M849.663 326.235C853.408 326.235 856.892 327.731 859.759 330.271C862.449 322.036 868.781 316.258 876.168 316.258C881.1 316.258 885.564 318.84 888.786 322.999C891.065 313.738 897.799 307.029 905.747 307.029C911.565 307.029 916.73 310.624 919.971 316.166C923.23 310.942 928.236 307.592 933.858 307.592C941.563 307.592 948.129 313.892 950.595 322.712C951.435 322.548 952.304 322.466 953.182 322.466C962.708 322.466 970.488 332.095 970.945 344.203H919.625H832.282C834.029 333.928 841.145 326.235 849.663 326.235Z" fill="#4C6788"/>
<path fill-rule="evenodd" clip-rule="evenodd" d="M794.99 331.716C798.044 331.716 800.874 332.75 803.218 334.523C805.413 328.796 810.569 324.781 816.583 324.781C820.599 324.781 824.232 326.574 826.857 329.473C828.715 323.04 834.197 318.379 840.679 318.379C845.414 318.379 849.626 320.868 852.269 324.73C854.922 321.093 859.003 318.768 863.579 318.768C869.856 318.768 875.198 323.152 877.215 329.268C877.906 329.155 878.607 329.104 879.326 329.104C887.087 329.104 893.428 335.793 893.802 344.203H851.989H780.832C782.251 337.063 788.051 331.716 794.99 331.716Z" fill="#577498"/>
<path d="M1145.06 344.203H0.0649414V350.82H1145.06V344.203Z" fill="#90C3E3"/>
<path fill-rule="evenodd" clip-rule="evenodd" d="M753.831 262.665C754.7 262.665 755.409 261.886 755.409 260.933C755.409 259.97 754.7 259.202 753.831 259.202C752.962 259.202 752.253 259.981 752.253 260.933C752.253 261.886 752.953 262.665 753.831 262.665Z" fill="#B5C7E5"/>
<path d="M577.978 317.057H583.787V344.203H577.978V317.057Z" fill="#4C6788"/>
<path d="M41.8461 317.057H47.6552V344.203H41.8461V317.057Z" fill="#4C6788"/>
<path d="M340.627 317.057H346.436V344.203H340.627V317.057Z" fill="#4C6788"/>
<path d="M71.1836 327.344H74.7914V344.203H71.1836V327.344Z" fill="#4C6788"/>
<path d="M15.7007 327.344H19.3085V344.203H15.7007V327.344Z" fill="#4C6788"/>
<path d="M577.978 317.057H580.883V344.203H577.978V317.057Z" fill="#577498"/>
<path d="M41.8462 317.057H44.7509V344.203H41.8462V317.057Z" fill="#577498"/>
<path d="M340.627 317.057H343.532V344.203H340.627V317.057Z" fill="#577498"/>
<path d="M71.1837 327.344H72.9877V344.203H71.1837V327.344Z" fill="#577498"/>
<path d="M15.7008 327.344H17.5048V344.203H15.7008V327.344Z" fill="#577498"/>
<path fill-rule="evenodd" clip-rule="evenodd" d="M580.948 252.093C584.039 252.093 612.609 320.94 580.948 320.94C549.296 320.94 577.866 252.093 580.948 252.093Z" fill="#B5C7E5"/>
<path fill-rule="evenodd" clip-rule="evenodd" d="M44.816 252.093C47.9074 252.093 76.4768 320.94 44.816 320.94C13.1646 320.94 41.734 252.093 44.816 252.093Z" fill="#B5C7E5"/>
<path fill-rule="evenodd" clip-rule="evenodd" d="M343.597 252.093C346.689 252.093 375.258 320.94 343.597 320.94C311.946 320.94 340.515 252.093 343.597 252.093Z" fill="#B5C7E5"/>
<path fill-rule="evenodd" clip-rule="evenodd" d="M73.0281 286.997C74.948 286.997 92.6914 329.755 73.0281 329.755C53.3706 329.755 71.114 286.997 73.0281 286.997Z" fill="#B5C7E5"/>
<path fill-rule="evenodd" clip-rule="evenodd" d="M17.5457 286.997C19.4656 286.997 37.209 329.755 17.5457 329.755C-2.11185 329.755 15.6315 286.997 17.5457 286.997Z" fill="#B5C7E5"/>
<path fill-rule="evenodd" clip-rule="evenodd" d="M580.948 252.093C583.862 252.093 609.452 313.37 585.739 320.294C565.108 313.82 578.613 260.38 580.948 252.093Z" fill="#DBE3F1"/>
<path fill-rule="evenodd" clip-rule="evenodd" d="M44.8162 252.093C47.7301 252.093 73.3202 313.37 49.6074 320.294C28.9766 313.82 42.4814 260.38 44.8162 252.093Z" fill="#DBE3F1"/>
<path fill-rule="evenodd" clip-rule="evenodd" d="M343.597 252.093C346.511 252.093 372.101 313.37 348.389 320.294C327.758 313.82 341.263 260.38 343.597 252.093Z" fill="#DBE3F1"/>
<path fill-rule="evenodd" clip-rule="evenodd" d="M73.0282 286.997C74.8379 286.997 90.7309 325.054 76.0037 329.354C63.1908 325.333 71.5781 292.144 73.0282 286.997Z" fill="#DBE3F1"/>
<path fill-rule="evenodd" clip-rule="evenodd" d="M17.5452 286.997C19.3549 286.997 35.2479 325.054 20.5208 329.354C7.70782 325.333 16.0951 292.144 17.5452 286.997Z" fill="#DBE3F1"/>
<path d="M1108.11 313.964H1114.59V344.213H1108.11V313.964Z" fill="#4C6788"/>
<path d="M1108.11 313.964H1111.35V344.213H1108.11V313.964Z" fill="#577498"/>
<path fill-rule="evenodd" clip-rule="evenodd" d="M1111.43 241.594C1114.88 241.594 1146.7 318.287 1111.43 318.287C1076.16 318.287 1107.98 241.594 1111.43 241.594Z" fill="#B5C7E5"/>
<path fill-rule="evenodd" clip-rule="evenodd" d="M1111.43 241.594C1114.68 241.594 1143.18 309.856 1116.77 317.57C1093.78 310.358 1108.81 250.833 1111.43 241.594Z" fill="#DBE3F1"/>
<path d="M612.067 320.008H617.25V344.203H612.067V320.008Z" fill="#4C6788"/>
<path d="M612.076 320.008H614.663V344.203H612.076V320.008Z" fill="#577498"/>
<path fill-rule="evenodd" clip-rule="evenodd" d="M614.72 262.101C617.475 262.101 642.934 323.47 614.72 323.47C586.505 323.47 611.965 262.101 614.72 262.101Z" fill="#B5C7E5"/>
<path fill-rule="evenodd" clip-rule="evenodd" d="M614.719 262.101C617.315 262.101 640.122 316.719 618.996 322.896C600.598 317.129 612.627 269.497 614.719 262.101Z" fill="#DBE3F1"/>
<path fill-rule="evenodd" clip-rule="evenodd" d="M605.884 16.1756C607.108 16.1756 608.098 15.0898 608.098 13.7479C608.098 12.406 607.108 11.3202 605.884 11.3202C604.661 11.3202 603.671 12.406 603.671 13.7479C603.671 15.0898 604.661 16.1756 605.884 16.1756Z" fill="#DBE3F1"/>
<path fill-rule="evenodd" clip-rule="evenodd" d="M697.252 100.572C699.157 100.572 700.708 98.8816 700.708 96.7816C700.708 94.692 699.167 92.9915 697.252 92.9915C695.347 92.9915 693.796 94.692 693.796 96.7816C693.796 98.8816 695.347 100.572 697.252 100.572Z" fill="#DBE3F1"/>
<path fill-rule="evenodd" clip-rule="evenodd" d="M687.016 32.1657C688.921 32.1657 690.471 30.4653 690.471 28.3756C690.471 26.2859 688.93 24.5855 687.016 24.5855C685.11 24.5855 683.56 26.2859 683.56 28.3756C683.569 30.4653 685.11 32.1657 687.016 32.1657Z" fill="#DBE3F1"/>
<path fill-rule="evenodd" clip-rule="evenodd" d="M815.909 15.4995C816.778 15.4995 817.488 14.721 817.488 13.7684C817.488 12.8158 816.778 12.0372 815.909 12.0372C815.041 12.0372 814.331 12.8158 814.331 13.7684C814.322 14.721 815.031 15.4995 815.909 15.4995Z" fill="#DBE3F1"/>
<path fill-rule="evenodd" clip-rule="evenodd" d="M754.512 81.6418C755.39 81.6418 756.09 80.8633 756.09 79.9106C756.09 78.958 755.38 78.1795 754.512 78.1795C753.634 78.1795 752.933 78.958 752.933 79.9106C752.933 80.8633 753.634 81.6418 754.512 81.6418Z" fill="#DBE3F1"/>
<path fill-rule="evenodd" clip-rule="evenodd" d="M587.737 86.4459C588.605 86.4459 589.315 85.6674 589.315 84.7148C589.315 83.7519 588.605 82.9836 587.737 82.9836C586.868 82.9836 586.159 83.7621 586.159 84.7148C586.149 85.6674 586.859 86.4459 587.737 86.4459Z" fill="#DBE3F1"/>
<path fill-rule="evenodd" clip-rule="evenodd" d="M910.677 112.372C911.555 112.372 912.256 111.594 912.256 110.641C912.256 109.688 911.546 108.91 910.677 108.91C909.809 108.91 909.099 109.688 909.099 110.641C909.099 111.594 909.809 112.372 910.677 112.372Z" fill="#DBE3F1"/>
<path fill-rule="evenodd" clip-rule="evenodd" d="M609.134 224.251C611.581 224.251 613.561 222.08 613.561 219.396C613.561 216.712 611.581 214.541 609.134 214.541C606.687 214.541 604.707 216.712 604.707 219.396C604.707 222.08 606.697 224.251 609.134 224.251Z" fill="#DBE3F1"/>
<path fill-rule="evenodd" clip-rule="evenodd" d="M638.778 77.5034C641.094 77.5034 642.98 75.4445 642.98 72.8939C642.98 70.3432 641.094 68.2843 638.778 68.2843C636.462 68.2843 634.575 70.3432 634.575 72.8939C634.575 75.4343 636.462 77.5034 638.778 77.5034Z" fill="#DBE3F1"/>
<path fill-rule="evenodd" clip-rule="evenodd" d="M1009.33 40.2478C1010.55 40.2478 1011.54 39.162 1011.54 37.8201C1011.54 36.4782 1010.55 35.3924 1009.33 35.3924C1008.11 35.3924 1007.12 36.4782 1007.12 37.8201C1007.12 39.162 1008.11 40.2478 1009.33 40.2478Z" fill="#DBE3F1"/>
<path fill-rule="evenodd" clip-rule="evenodd" d="M1097.04 189.352C1098.26 189.352 1099.25 188.266 1099.25 186.924C1099.25 185.582 1098.26 184.497 1097.04 184.497C1095.81 184.497 1094.82 185.582 1094.82 186.924C1094.82 188.266 1095.82 189.352 1097.04 189.352Z" fill="#DBE3F1"/>
<path fill-rule="evenodd" clip-rule="evenodd" d="M1104.71 61.8924C1105.94 61.8924 1106.93 60.8065 1106.93 59.4647C1106.93 58.1228 1105.94 57.037 1104.71 57.037C1103.49 57.037 1102.5 58.1228 1102.5 59.4647C1102.5 60.8065 1103.49 61.8924 1104.71 61.8924Z" fill="#DBE3F1"/>
<path fill-rule="evenodd" clip-rule="evenodd" d="M1078.46 107.609C1080.91 107.609 1082.89 105.437 1082.89 102.754C1082.89 100.07 1080.91 97.8982 1078.46 97.8982C1076.01 97.8982 1074.03 100.07 1074.03 102.754C1074.03 105.437 1076.02 107.609 1078.46 107.609Z" fill="#DBE3F1"/>
<path fill-rule="evenodd" clip-rule="evenodd" d="M1045.35 20.7851C1047.68 20.7851 1049.56 18.7159 1049.56 16.1756C1049.56 13.6249 1047.68 11.566 1045.35 11.566C1043.03 11.566 1041.15 13.6352 1041.15 16.1756C1041.15 18.7159 1043.03 20.7851 1045.35 20.7851Z" fill="#DBE3F1"/>
<path fill-rule="evenodd" clip-rule="evenodd" d="M756.277 32.8111C758.593 32.8111 760.479 30.7522 760.479 28.2015C760.479 25.6611 758.602 23.592 756.277 23.592C753.951 23.592 752.074 25.6611 752.074 28.2015C752.074 30.7419 753.951 32.8111 756.277 32.8111Z" fill="#DBE3F1"/>
<path fill-rule="evenodd" clip-rule="evenodd" d="M892.036 7.75546C893.942 7.75546 895.492 6.06529 895.492 3.96538C895.492 1.87571 893.951 0.175293 892.036 0.175293C890.131 0.175293 888.581 1.87571 888.581 3.96538C888.59 6.06529 890.131 7.75546 892.036 7.75546Z" fill="#DBE3F1"/>
<path fill-rule="evenodd" clip-rule="evenodd" d="M1008.61 105.13C1010.52 105.13 1012.07 103.44 1012.07 101.34C1012.07 99.2503 1010.52 97.5499 1008.61 97.5499C1006.71 97.5499 1005.16 99.2503 1005.16 101.34C1005.16 103.44 1006.71 105.13 1008.61 105.13Z" fill="#DBE3F1"/>
</svg>
